<svg width="20" height="20" viewBox="0 0 20 20" fill="none" xmlns="http://www.w3.org/2000/svg">
<path fill-rule="evenodd" clip-rule="evenodd" d="M9.48838 1.00892C9.78929 0.77486 10.2106 0.77486 10.5115 1.00892L18.0115 6.84225C18.2145 7.00012 18.3333 7.24288 18.3333 7.50004V16.6667C18.3333 17.3298 18.0699 17.9656 17.601 18.4345C17.1322 18.9033 16.4964 19.1667 15.8333 19.1667H4.16663C3.50358 19.1667 2.8677 18.9033 2.39886 18.4345C1.93002 17.9656 1.66663 17.3298 1.66663 16.6667V7.50004C1.66663 7.24288 1.78535 7.00012 1.98834 6.84225L9.48838 1.00892ZM3.33329 7.90761V16.6667C3.33329 16.8877 3.42109 17.0997 3.57737 17.256C3.73365 17.4122 3.94561 17.5 4.16663 17.5H15.8333C16.0543 17.5 16.2663 17.4122 16.4225 17.256C16.5788 17.0997 16.6666 16.8877 16.6666 16.6667V7.90761L9.99996 2.72242L3.33329 7.90761Z" fill="#3BB77E"/>
<path fill-rule="evenodd" clip-rule="evenodd" d="M6.66663 9.99996C6.66663 9.53971 7.03973 9.16663 7.49996 9.16663H12.5C12.9602 9.16663 13.3333 9.53971 13.3333 9.99996V18.3333C13.3333 18.7935 12.9602 19.1666 12.5 19.1666C12.0397 19.1666 11.6666 18.7935 11.6666 18.3333V10.8333H8.33329V18.3333C8.33329 18.7935 7.96019 19.1666 7.49996 19.1666C7.03973 19.1666 6.66663 18.7935 6.66663 18.3333V9.99996Z" fill="#3BB77E"/>
</svg>
