<svg width="45" height="44" viewBox="0 0 45 44" fill="none" xmlns="http://www.w3.org/2000/svg">
<circle cx="22.3333" cy="22" r="22" fill="#3BB77E"/>
<path d="M31.9331 31.5999V24.5679C31.9331 21.1119 31.1891 18.4719 27.1571 18.4719C25.2131 18.4719 23.9171 19.5279 23.3891 20.5359H23.3411V18.7839H19.5251V31.5999H23.5091V25.2399C23.5091 23.5599 23.8211 21.9519 25.8851 21.9519C27.9251 21.9519 27.9491 23.8479 27.9491 25.3359V31.5759H31.9331V31.5999Z" fill="white"/>
<path d="M13.0452 18.7839H17.0292V31.5999H13.0452V18.7839Z" fill="white"/>
<path d="M15.0372 12.3999C13.7652 12.3999 12.7332 13.4319 12.7332 14.7039C12.7332 15.9759 13.7652 17.0319 15.0372 17.0319C16.3092 17.0319 17.3412 15.9759 17.3412 14.7039C17.3412 13.4319 16.3092 12.3999 15.0372 12.3999Z" fill="white"/>
</svg>
