<svg width="20" height="20" viewBox="0 0 20 20" fill="none" xmlns="http://www.w3.org/2000/svg">
<path d="M13.0159 3.72423C12.0635 2.91709 11.0826 2.07978 10.0897 1.09011L9.52383 0.528198L8.96828 1.0909C7.18097 2.88296 6.33653 5.63454 5.96986 7.28534C5.6892 6.85034 5.48094 6.37272 5.35319 5.87106L5.01748 4.57502L4.04129 5.49249C2.33097 7.09804 1.1905 8.6909 1.1905 11.2417C1.17453 13.0816 1.77376 14.874 2.89305 16.3344C4.01233 17.7947 5.58746 18.8393 7.36828 19.302C7.90484 19.4325 8.45249 19.5122 9.00399 19.5401C9.17642 19.562 9.35002 19.5733 9.52383 19.5742C9.61507 19.5742 9.70402 19.5663 9.79288 19.5607C11.9549 19.4957 14.0065 18.5907 15.5121 17.0378C17.0177 15.4848 17.859 13.4062 17.8572 11.2433C17.8572 7.83534 15.6135 5.93058 13.0159 3.72423ZM9.68259 17.9735C9.60316 17.9735 9.52383 17.9814 9.4397 17.9806C8.72535 17.9587 8.04747 17.66 7.54927 17.1477C7.05108 16.6353 6.77158 15.9492 6.76986 15.2345C6.76986 14.2282 7.30954 13.7266 8.53097 12.6869C8.83891 12.425 9.17383 12.1401 9.52621 11.814C9.83497 12.094 10.135 12.3481 10.4119 12.5838C11.6389 13.625 12.2794 14.2163 12.2794 15.2321C12.278 15.9341 12.0084 16.6091 11.5256 17.1187C11.0428 17.6283 10.3834 17.9341 9.68259 17.9735ZM13.6667 16.5679L13.6508 16.579C13.7933 16.145 13.8661 15.6913 13.8667 15.2345C13.8667 13.4369 12.6874 12.4354 11.4397 11.3759C10.9976 11.0012 10.5413 10.614 10.0857 10.1583L9.52383 9.59729L8.96272 10.1583C8.44843 10.6719 7.94526 11.1004 7.5016 11.4782C6.25716 12.5369 5.18176 13.452 5.18176 15.2345C5.18346 15.7109 5.26391 16.1837 5.41986 16.6338C4.59372 15.9994 3.92539 15.1826 3.46708 14.2473C3.00876 13.312 2.77286 12.2833 2.7778 11.2417C2.76474 9.849 3.30378 8.50782 4.277 7.51153C4.44464 7.85163 4.64337 8.1755 4.87066 8.47899C5.03666 8.70299 5.26457 8.87353 5.52632 8.96956C5.78806 9.0656 6.07218 9.08294 6.34367 9.01947C6.61985 8.95798 6.87248 8.81825 7.07134 8.61699C7.27022 8.41573 7.40692 8.16144 7.4651 7.88454C7.79741 6.06046 8.51614 4.32857 9.57307 2.80518C10.4103 3.59883 11.2397 4.30121 11.9881 4.93692C14.4738 7.04804 16.2738 8.57344 16.2738 11.2464C16.2757 12.274 16.0416 13.2881 15.5894 14.2108C15.1373 15.1335 14.4792 15.9399 13.6659 16.5679H13.6667Z" fill="#253D4E"/>
</svg>
