<svg width="16" height="16" viewBox="0 0 16 16" fill="none" xmlns="http://www.w3.org/2000/svg">
<path d="M11.9457 9.54673C11.773 9.71407 11.6937 9.95607 11.733 10.1934L12.3257 13.4734C12.3757 13.7514 12.2584 14.0327 12.0257 14.1934C11.7977 14.3601 11.4944 14.3801 11.2457 14.2467L8.29305 12.7067C8.19038 12.6521 8.07638 12.6227 7.95971 12.6194H7.77905C7.71638 12.6287 7.65505 12.6487 7.59905 12.6794L4.64571 14.2267C4.49971 14.3001 4.33438 14.3261 4.17238 14.3001C3.77771 14.2254 3.51438 13.8494 3.57905 13.4527L4.17238 10.1727C4.21171 9.9334 4.13238 9.69007 3.95971 9.52007L1.55238 7.18673C1.35105 6.9914 1.28105 6.69807 1.37305 6.4334C1.46238 6.1694 1.69038 5.97673 1.96571 5.9334L5.27905 5.45273C5.53105 5.42673 5.75238 5.2734 5.86571 5.04673L7.32571 2.0534C7.36038 1.98673 7.40505 1.9254 7.45905 1.8734L7.51905 1.82673C7.55038 1.79207 7.58638 1.7634 7.62638 1.74007L7.69905 1.7134L7.81238 1.66673H8.09305C8.34371 1.69273 8.56438 1.84273 8.67971 2.06673L10.159 5.04673C10.2657 5.26473 10.473 5.41607 10.7124 5.45273L14.0257 5.9334C14.3057 5.9734 14.5397 6.16673 14.6324 6.4334C14.7197 6.70073 14.6444 6.99407 14.439 7.18673L11.9457 9.54673Z" fill="#FDC040"/>
</svg>
