<svg width="21" height="20" viewBox="0 0 21 20" fill="none" xmlns="http://www.w3.org/2000/svg">
<path fill-rule="evenodd" clip-rule="evenodd" d="M3.26461 3.4065L3.32506 3.34332C4.93125 1.73699 5.97721 1.31122 7.09323 1.95298C7.41426 2.13758 7.71522 2.39599 8.12446 2.81163L9.37977 4.11332C10.0731 4.8699 10.2307 5.59561 10.005 6.4455L9.97387 6.55802L9.93935 6.66989L9.77154 7.16225C9.41236 8.26639 9.56231 8.88936 10.8402 10.1669C12.1691 11.4955 12.7895 11.6042 13.9788 11.1886L14.1908 11.1149L14.4471 11.0317L14.5592 11.0006C15.4626 10.7595 16.2257 10.9519 17.035 11.7606L18.0464 12.7376L18.3442 13.0304C18.6743 13.3671 18.8924 13.6338 19.0536 13.9157C19.6913 15.0314 19.2651 16.0767 17.6126 17.7231L17.4554 17.8824C17.2087 18.1201 16.9782 18.2905 16.6395 18.4513C16.0711 18.7212 15.3995 18.8229 14.6192 18.7144C12.6963 18.447 10.2575 16.9298 7.16724 13.8403C6.91569 13.5889 6.67476 13.3422 6.44422 13.1004L5.9969 12.623C1.80536 8.069 1.43558 5.27153 3.15332 3.51705L3.26461 3.4065ZM7.11269 3.5674C6.84119 3.29974 6.64397 3.13657 6.4701 3.03659C6.0855 2.81543 5.67025 2.90891 4.90175 3.57036L4.66028 3.78608C4.61816 3.82496 4.57508 3.86532 4.53099 3.9072L4.2541 4.17689L4.22915 4.20806L4.04143 4.39665C3.58781 4.85999 3.37293 5.42549 3.55809 6.39802C3.86193 7.99387 5.25269 10.1587 8.05101 12.9563C10.9667 15.8713 13.1883 17.2534 14.7913 17.4763C15.7259 17.6063 16.2025 17.38 16.6886 16.882L17.0593 16.5079C17.2332 16.3259 17.3817 16.1611 17.5071 16.0104L17.6782 15.7949C18.1154 15.2125 18.1554 14.8631 17.9684 14.536C17.8972 14.4116 17.7937 14.2751 17.6431 14.1083L17.4387 13.8925L17.3178 13.7715L16.0417 12.5393C15.6153 12.1461 15.3239 12.0903 14.8815 12.2083L14.7538 12.245L14.2252 12.4245C12.6917 12.9197 11.5855 12.6796 9.95645 11.0509C8.26925 9.36417 8.07138 8.23777 8.63669 6.61594L8.67296 6.51172L8.77324 6.20957L8.82254 6.01698C8.90995 5.59784 8.81015 5.3056 8.35958 4.85496C8.34103 4.83641 8.3203 4.81551 8.29774 4.79263L7.11269 3.5674Z" fill="#3BB77E"/>
</svg>
