<svg width="24" height="24" viewBox="0 0 24 24" fill="none" xmlns="http://www.w3.org/2000/svg">
<path fill-rule="evenodd" clip-rule="evenodd" d="M4.95076 2.481C5.72869 2.15798 6.56273 1.9917 7.40506 1.9917C8.24739 1.9917 9.08144 2.15798 9.85937 2.481C10.6373 2.80402 11.3438 3.27743 11.9384 3.87408L11.9417 3.87742L12.0001 3.93653L12.0584 3.87743L12.0617 3.87408C12.6563 3.27743 13.3628 2.80402 14.1408 2.481C14.9187 2.15798 15.7527 1.9917 16.5951 1.9917C17.4374 1.9917 18.2714 2.15798 19.0494 2.481C19.827 2.80391 20.5333 3.2771 21.1278 3.87346C23.6728 6.41916 23.7294 10.6283 20.7137 13.7005L20.7072 13.7071L12.7072 21.7071C12.5196 21.8946 12.2653 22 12.0001 22C11.7348 22 11.4805 21.8946 11.293 21.7071L3.2864 13.7005C0.270699 10.6283 0.327319 6.41915 2.87235 3.87346C3.4668 3.2771 4.1731 2.80391 4.95076 2.481ZM7.40506 3.9917C6.82596 3.9917 6.25255 4.10602 5.71773 4.32809C5.1829 4.55017 4.69717 4.87564 4.2884 5.28584L4.28717 5.28706C2.59356 6.98068 2.38982 9.92921 4.71058 12.2963L12.0001 19.5857L19.2895 12.2963C21.6103 9.92922 21.4066 6.98068 19.713 5.28706L19.7117 5.28584C19.303 4.87564 18.8172 4.55017 18.2824 4.32809C17.7476 4.10602 17.1742 3.9917 16.5951 3.9917C16.016 3.9917 15.4426 4.10602 14.9077 4.32809C14.3736 4.54988 13.8884 4.87478 13.48 5.28422C13.4795 5.28476 13.4789 5.2853 13.4784 5.28584L12.7117 6.06249C12.5238 6.25282 12.2675 6.35996 12.0001 6.35996C11.7326 6.35996 11.4763 6.25282 11.2884 6.06249L10.5217 5.28584C10.5212 5.2853 10.5207 5.28476 10.5201 5.28422C10.1117 4.87478 9.62652 4.54988 9.0924 4.32809C8.55757 4.10602 7.98416 3.9917 7.40506 3.9917Z" fill="#253D4E"/>
</svg>
