<svg width="21" height="20" viewBox="0 0 21 20" fill="none" xmlns="http://www.w3.org/2000/svg">
<path fill-rule="evenodd" clip-rule="evenodd" d="M18.052 4.33653C18.2593 4.49411 18.381 4.73955 18.381 4.99997V15C18.381 15.2527 18.2663 15.4918 18.0691 15.65C17.872 15.8082 17.6137 15.8683 17.3669 15.8135L2.36691 12.4801C1.98563 12.3954 1.71436 12.0572 1.71436 11.6666V9.16663C1.71436 8.79229 1.96397 8.46389 2.32465 8.3637L17.3247 4.19704C17.5756 4.12734 17.8446 4.17894 18.052 4.33653ZM3.38102 9.80004V10.9982L16.7144 13.9611V6.09633L3.38102 9.80004Z" fill="#253D4E"/>
<path fill-rule="evenodd" clip-rule="evenodd" d="M5.10248 11.8633C5.54615 11.9857 5.80659 12.4446 5.6842 12.8883C5.62576 13.1001 5.60961 13.3215 5.6367 13.5396C5.66378 13.7577 5.73355 13.9683 5.84204 14.1594C5.95052 14.3506 6.09559 14.5185 6.26896 14.6536C6.44234 14.7886 6.64062 14.8882 6.85248 14.9467C7.06435 15.0051 7.28566 15.0213 7.50376 14.9942C7.72187 14.9671 7.9325 14.8973 8.12364 14.7888C8.31478 14.6804 8.48268 14.5353 8.61776 14.3619C8.75283 14.1885 8.85244 13.9903 8.91088 13.7784C9.03327 13.3347 9.49215 13.0743 9.93582 13.1967C10.3795 13.3191 10.6399 13.7779 10.5175 14.2216C10.4009 14.6445 10.2021 15.0402 9.9325 15.3862C9.66291 15.7323 9.32781 16.0218 8.94632 16.2383C8.56483 16.4548 8.14443 16.5941 7.70912 16.6482C7.27382 16.7022 6.83212 16.67 6.40927 16.5533C5.98641 16.4367 5.59068 16.2379 5.24465 15.9683C4.89862 15.6987 4.60908 15.3636 4.39256 14.9821C4.17604 14.6006 4.03678 14.1802 3.98273 13.7449C3.92868 13.3096 3.9609 12.8679 4.07755 12.4451C4.19994 12.0014 4.65882 11.741 5.10248 11.8633Z" fill="#253D4E"/>
</svg>
