<svg width="21" height="20" viewBox="0 0 21 20" fill="none" xmlns="http://www.w3.org/2000/svg">
<path fill-rule="evenodd" clip-rule="evenodd" d="M16.4701 3.57745C16.7956 3.90289 16.7956 4.43053 16.4701 4.75596L4.80345 16.4226C4.47801 16.7481 3.95037 16.7481 3.62494 16.4226C3.2995 16.0972 3.2995 15.5696 3.62494 15.2441L15.2916 3.57745C15.617 3.25201 16.1447 3.25201 16.4701 3.57745Z" fill="#253D4E"/>
<path fill-rule="evenodd" clip-rule="evenodd" d="M5.46427 4.16667C4.77392 4.16667 4.21427 4.72631 4.21427 5.41667C4.21427 6.10702 4.77392 6.66667 5.46427 6.66667C6.15463 6.66667 6.71427 6.10702 6.71427 5.41667C6.71427 4.72631 6.15463 4.16667 5.46427 4.16667ZM2.54761 5.41667C2.54761 3.80584 3.85344 2.5 5.46427 2.5C7.0751 2.5 8.38094 3.80584 8.38094 5.41667C8.38094 7.0275 7.0751 8.33333 5.46427 8.33333C3.85344 8.33333 2.54761 7.0275 2.54761 5.41667Z" fill="#253D4E"/>
<path fill-rule="evenodd" clip-rule="evenodd" d="M14.631 13.3333C13.9407 13.3333 13.381 13.8929 13.381 14.5833C13.381 15.2736 13.9407 15.8333 14.631 15.8333C15.3214 15.8333 15.881 15.2736 15.881 14.5833C15.881 13.8929 15.3214 13.3333 14.631 13.3333ZM11.7144 14.5833C11.7144 12.9725 13.0202 11.6666 14.631 11.6666C16.2419 11.6666 17.5477 12.9725 17.5477 14.5833C17.5477 16.1941 16.2419 17.5 14.631 17.5C13.0202 17.5 11.7144 16.1941 11.7144 14.5833Z" fill="#253D4E"/>
</svg>
