<svg width="56" height="56" viewBox="0 0 56 56" fill="none" xmlns="http://www.w3.org/2000/svg">
<path d="M19.0749 29.619C18.1452 29.9799 17.0952 29.5861 16.6359 28.7002L8.10461 12.2721C7.1093 10.3252 7.86399 7.95177 9.81086 6.95646C9.93117 6.90177 10.0405 6.84708 10.1609 6.7924C12.3593 5.90646 14.7765 7.19708 15.389 9.42833L15.3999 9.46115L20.2452 27.3002C20.4968 28.2518 19.9937 29.258 19.0749 29.619Z" fill="#F98500"/>
<path d="M18.6156 21.3391L16.1984 22.2906C15.7499 22.4547 15.2468 22.2359 15.0609 21.7875C14.8859 21.3391 15.1046 20.825 15.5531 20.65L18.1453 19.6328L18.6156 21.3391Z" fill="#FA6D00"/>
<path d="M19.5562 24.7626L17.478 25.5392C17.0296 25.6923 16.5374 25.4845 16.3405 25.0361C16.1655 24.5876 16.3843 24.0736 16.8437 23.8986L19.0968 23.0564L19.5562 24.7626Z" fill="#FA6D00"/>
<path d="M29.3672 13.5516C28.6344 13.0485 28.2625 12.1625 28.4265 11.2766C28.8312 9.24224 27.5187 7.26255 25.4734 6.84692C25.4515 6.84692 25.4187 6.83599 25.3969 6.83599C24.5547 6.6938 23.8547 6.09224 23.5922 5.27192C23.5265 5.07505 23.45 4.87818 23.3625 4.69224C22.4328 2.83286 20.1797 2.07818 18.3203 3.00786C16.5594 3.88286 15.7719 5.97192 16.5156 7.78755C16.8984 8.72817 17.0844 9.5813 16.439 10.4891C15.2359 12.1844 15.6406 14.536 17.3359 15.7282C17.3469 15.7391 17.3687 15.75 17.3797 15.761C18.1125 16.275 18.4625 17.1719 18.2875 18.0469C17.8937 20.0813 19.2281 22.061 21.2734 22.4547C23.1109 22.8047 24.9156 21.7657 25.539 20.0047C27.3984 20.9344 29.6515 20.1688 30.5812 18.3204C31.4125 16.6469 30.8984 14.6235 29.3672 13.5516Z" fill="#598C44"/>
<path d="M37.8984 16.5595C37.4062 15.8158 37.3953 14.8533 37.8765 14.0986C39.025 12.3705 38.5437 10.0298 36.8156 8.88141C36.7937 8.87047 36.7718 8.8486 36.75 8.83766C35.6781 8.15954 35.7547 7.19704 35.6672 6.09235C35.514 4.02516 33.6984 2.47204 31.6312 2.62516C29.6734 2.77829 28.1531 4.40797 28.1531 6.37672C28.1531 7.39391 28 8.24704 27.0703 8.8486C25.3203 9.96422 24.8062 12.2939 25.9328 14.0439C25.9437 14.0548 25.9547 14.0767 25.9656 14.0877C26.4468 14.8423 26.4468 15.8048 25.9437 16.5486C24.8172 18.2877 25.3093 20.6173 27.0484 21.7548C28.6125 22.772 30.6906 22.4877 31.9156 21.0877C33.2937 22.6408 35.6672 22.7939 37.2203 21.4267C38.6203 20.2017 38.9047 18.1236 37.8984 16.5595Z" fill="#5F9548"/>
<path d="M43.75 27.1251L33.25 23.6251L39.0359 6.27825C39.7359 4.18919 41.8687 2.57044 44.0891 2.62512C45.4672 2.65794 46.7578 2.92044 47.8406 3.79544C49.5906 5.19544 50.2797 7.53606 49.5687 9.65794L43.75 27.1251Z" fill="#FFB531"/>
<path d="M36.75 18.375V49.875H10.5V18.375L13.125 20.125L15.75 18.375L18.375 20.125L21 18.375L23.625 20.125L26.25 18.375L28.875 20.125L31.5 18.375L34.125 20.125L36.75 18.375Z" fill="#FFB531"/>
<path d="M36.75 25.6267V49.8751H10.5V44.5705C20.1359 41.333 29.6844 35.4376 36.75 25.6267Z" fill="#FCAC1F"/>
<path d="M47.25 18.375V49.875H36.75V18.375L39.375 20.125L42 18.375L44.625 20.125L47.25 18.375Z" fill="#F98500"/>
<path d="M10.6641 53.375C14.5301 53.375 17.6641 50.241 17.6641 46.375C17.6641 42.509 14.5301 39.375 10.6641 39.375C6.79807 39.375 3.66406 42.509 3.66406 46.375C3.66406 50.241 6.79807 53.375 10.6641 53.375Z" fill="#F35244"/>
<path d="M25.375 35L26.25 36.75C25.1672 37.8328 24.7297 39.4078 25.1016 40.9062L25.375 42H21.875V40.6656C21.875 38.2703 23.2312 36.0719 25.375 35Z" fill="#5F9548"/>
<path d="M20.2452 53.375C19.1406 53.375 18.1562 52.6531 17.839 51.5922L15.8702 45.0188C15.3234 43.1922 16.5265 41.125 18.5499 41.125C19.5343 41.125 20.4421 41.6391 20.9452 42.4812L22.7499 45.5V50.8703C22.7499 52.2484 21.6234 53.375 20.2452 53.375Z" fill="#FA9F0C"/>
<path d="M27.0047 53.375C28.1094 53.375 29.0937 52.6531 29.4109 51.5922L31.3797 45.0188C31.9375 43.1703 30.7125 41.125 28.7 41.125C27.7156 41.125 26.8078 41.6391 26.3047 42.4812L24.5 45.5V50.8703C24.5 52.2484 25.6266 53.375 27.0047 53.375Z" fill="#FA9F0C"/>
<path d="M23.625 41.125C25.0797 41.125 26.25 42.2953 26.25 43.75V50.75C26.25 52.2047 25.0797 53.375 23.625 53.375C22.1703 53.375 21 52.2047 21 50.75V43.75C21 42.2953 22.1703 41.125 23.625 41.125Z" fill="#FFB531"/>
<path d="M48.3875 3.11729C46.7687 1.81572 44.5484 1.42197 42.4375 2.03447C40.3812 2.63604 38.839 4.09072 38.2047 6.00479L34.6719 16.6142L34.2562 16.0017L32.7906 16.9751V13.4423L35.2187 11.8235L34.2453 10.3688L32.7797 11.3423V7.32822H31.0297V11.3313L29.575 10.3579L28.6015 11.8126L31.0297 13.4313V16.9642L29.575 15.9907L28.6015 17.4454L29.9469 18.3423L28.864 19.0642L26.7203 17.6423C26.6219 17.5767 26.5234 17.5329 26.414 17.511C26.4797 17.347 26.5672 17.1829 26.6656 17.0298C27.3437 15.9907 27.3437 14.6563 26.6765 13.6063C26.064 12.6767 26.0859 11.2876 26.7203 10.3579C26.9937 9.96416 28.1094 9.16572 28.4047 8.77197C28.9844 8.00635 29.05 7.13135 29.1156 6.36572C29.1594 5.76416 29.2031 5.23916 29.4656 4.83447C30.3078 3.48916 32.0906 3.08447 33.4359 3.92666C33.7203 4.10166 33.9609 4.33135 34.1687 4.58291C34.639 5.17354 34.6828 5.76416 34.7375 6.5626C34.7594 6.83603 34.7812 7.13135 34.814 7.4376L36.5531 7.21885C36.5203 6.95635 36.4984 6.69385 36.4875 6.44229C36.4219 5.49072 36.3453 4.51728 35.5469 3.5001C33.9609 1.4876 31.0515 1.14854 29.039 2.72354C28.6234 3.05166 28.2625 3.44541 27.9781 3.89385C27.4969 4.65947 27.4312 5.49072 27.3656 6.2126C27.3547 6.37666 27.3437 6.52978 27.3219 6.68291C26.7859 6.32197 26.1734 6.07041 25.5281 5.9501C25.0031 5.8626 24.5656 5.49072 24.4015 4.9876C24.0187 3.79541 23.1875 2.81104 22.0719 2.24229C20.9781 1.6626 19.6984 1.55322 18.5172 1.93604C16.7781 2.51572 15.5094 4.14541 15.3562 6.01572C15.3015 6.72666 15.4765 7.3501 15.6515 7.90791C14.8312 6.5626 13.3984 5.70947 11.8234 5.61103L11.8562 1.72822L10.1062 1.71729L10.0844 4.24385L9.03435 1.55322L7.43748 2.22041L8.48748 4.91104L6.75935 3.07354L5.4906 4.26572L8.14841 7.10947C6.70466 8.59697 6.3656 10.8282 7.3281 12.6657L9.14373 16.1657L10.6969 15.3563L8.88123 11.8563C8.10466 10.3579 8.68435 8.50947 10.1828 7.73291C11.6812 6.95635 13.5297 7.53604 14.3062 9.03447C14.4047 9.23135 14.4812 9.42822 14.5469 9.64697L14.5797 9.75635L11.7578 10.861L12.3922 12.4907L15.039 11.4626V11.4735C14.875 12.097 14.8312 12.7423 14.9406 13.3876L13.0375 14.1313L13.6719 15.761L15.5531 15.0282C15.9906 15.761 16.7453 16.4392 16.7453 16.4392L14.3062 17.3907L14.5906 18.1017L13.1359 19.0751L10.9922 17.6532C10.5875 17.3798 10.0515 17.4892 9.7781 17.8938C9.67966 18.036 9.63591 18.211 9.63591 18.3751V36.7501H11.3859V20.0048L12.6547 20.847C12.95 21.0438 13.3328 21.0438 13.6281 20.847L15.7719 19.4251L17.9156 20.847C18.2109 21.0438 18.5937 21.0438 18.889 20.847L21.0328 19.4251L23.1765 20.847C23.4719 21.0438 23.8547 21.0438 24.15 20.847L26.2937 19.4251L28.4375 20.847C28.7328 21.0438 29.1156 21.0438 29.4109 20.847L31.5547 19.4251L33.6984 20.847C33.9937 21.0438 34.3765 21.0438 34.6719 20.847L35.9406 20.0048V49.0001H32.4406V50.7501H47.3156C47.7969 50.7501 48.1906 50.3563 48.1906 49.8751V18.3751C48.1906 18.1126 48.0703 17.872 47.8734 17.7079L50.4656 9.94229C51.2203 7.47041 50.4109 4.74697 48.3875 3.11729ZM25.2328 14.5907C25.3094 14.711 25.364 14.8423 25.3969 14.9845L24.7953 15.8704L23.4609 12.5892L24.6312 10.861C24.325 12.1188 24.5219 13.5188 25.2328 14.5907ZM19.1297 18.5829C19.3594 17.6532 19.1734 16.6798 18.6375 15.8923C18.1234 15.1485 17.3031 14.6345 16.8875 13.8251C16.6687 13.3985 16.5812 12.9063 16.6359 12.4251C16.7672 11.3532 17.5765 10.4563 17.6969 9.38447C17.7844 8.59697 17.4672 7.83135 17.3031 7.05478C16.9203 5.3376 18.0031 3.59853 19.8515 3.51103C20.7484 3.47822 21.6015 3.86103 22.1703 4.5501C22.6734 5.17353 22.9031 5.99385 23.4062 6.62822C23.7781 7.09853 24.2812 7.4376 24.85 7.60166C25.4078 7.76572 26.064 7.7876 26.4359 8.23603C25.7906 8.69541 25.2656 9.29697 24.9047 10.0079L23.6578 9.17666L22.6734 10.5985L21.164 6.9126L19.5562 7.56885L21.0547 11.2657L19.3484 10.9376L18.9984 12.6438L21.8094 13.2782L23.1765 16.4938L21.4703 16.1657L21.2625 17.1938C21.2515 17.2048 19.5781 18.2548 19.1297 18.5829ZM22.1703 18.1017L23.975 18.4735L24.0953 18.7688L23.625 19.0751L22.1703 18.1017ZM33.4578 18.6267L34.1359 18.1673L33.8844 18.911L33.4578 18.6267ZM37.625 20.0048L38.8937 20.847C39.189 21.0438 39.5719 21.0438 39.8672 20.847L41.1359 20.0048V44.2532L37.6359 47.7532V20.0048H37.625ZM46.375 20.0048V47.7532L42.875 44.2532V20.0048L44.1437 20.847C44.439 21.0438 44.8219 21.0438 45.1172 20.847L46.375 20.0048ZM42 45.861L45.139 49.0001H38.8609L42 45.861ZM48.7375 9.38447L45.7625 18.3095L44.625 19.0642L42.4812 17.6423C42.1859 17.4454 41.8031 17.4454 41.5078 17.6423L39.364 19.0642C39.364 19.0642 37.1765 17.6095 37.1547 17.5985C36.8703 17.4454 36.5203 17.4673 36.2578 17.6423L36.1265 17.7298L39.8562 6.55166C40.3156 5.18447 41.4312 4.15635 42.9297 3.70791C44.4828 3.24854 46.1125 3.53291 47.2937 4.47354C48.7484 5.65479 49.3281 7.6126 48.7375 9.38447Z" fill="black"/>
<path d="M40.9648 8.77588L46.2168 7.90232L46.5038 9.62782L41.2518 10.5014L40.9648 8.77588Z" fill="black"/>
<path d="M39.2134 14.0232L44.4654 13.1496L44.7524 14.8751L39.5004 15.7487L39.2134 14.0232Z" fill="black"/>
<path d="M28.7109 40.2501C27.7484 40.2392 26.8187 40.622 26.1406 41.3111C26.1296 41.3001 26.1187 41.2892 26.1078 41.2673L25.9656 40.6876C25.9656 40.6767 25.9656 40.6767 25.9546 40.6658C25.6156 39.4736 26.2937 37.9642 26.8843 37.3736C27.1468 37.1111 27.2125 36.6954 27.0484 36.3673L26.1734 34.6173C25.9546 34.1798 25.4296 34.0048 25.0031 34.2236C22.5531 35.4376 21.0109 37.9423 21.0218 40.6658V41.1361C20.814 40.9829 20.5843 40.8408 20.3546 40.7095C18.6593 39.8017 16.4609 40.3704 15.4546 41.9673C14.875 42.897 14.7218 44.1548 15.05 45.2595L16.1875 49.0548C14.6781 52.0845 11.0031 53.3204 7.97339 51.822C4.97651 50.3345 3.72964 46.7142 5.17339 43.6954C5.19526 43.6517 5.21714 43.6079 5.23901 43.5642L5.27183 46.5392L7.02183 46.5173L6.96714 42.8751L10.4562 43.0392L10.5437 41.2892L7.50308 41.147C8.41089 40.5892 9.46089 40.2829 10.5218 40.2501C11.7906 40.2173 13.0375 40.5783 14.0875 41.2892L15.0609 39.8345C13.0921 38.5111 10.6312 38.1501 8.36714 38.8392L8.73901 37.9642L7.1312 37.2751L5.92808 40.0751C5.84058 40.1408 5.74214 40.2173 5.65464 40.2939L2.98589 37.6251L1.74995 38.8611L4.44058 41.5517C4.38589 41.6283 4.3312 41.7048 4.27651 41.7814L1.41089 43.0064L2.09995 44.6142L3.1062 44.1767C1.89214 48.3548 4.29839 52.7189 8.47651 53.9329C11.2328 54.7314 14.2078 53.9657 16.2421 51.9314C16.45 51.7236 16.6468 51.4939 16.8328 51.2642L17.0078 51.8329C17.5437 53.6267 19.425 54.6329 21.2187 54.097C21.4703 54.0204 21.7 53.922 21.9296 53.7908C22.9906 54.3814 24.2812 54.3814 25.3421 53.7908C26.9609 54.7204 29.0281 54.1517 29.9578 52.5329C30.089 52.3142 30.1875 52.0736 30.264 51.822L32.2328 45.2486C32.3531 44.8111 32.4078 44.3517 32.3859 43.8923C32.375 41.8908 30.7343 40.2501 28.7109 40.2501ZM25.014 36.2361L25.2109 36.6298C24.5218 37.5814 24.0296 38.9704 24.1171 40.2829C23.8656 40.2392 23.1765 40.2064 22.7609 40.3595C22.8484 38.7079 23.6796 37.1986 25.014 36.2361ZM18.6812 51.3408L16.7125 44.7673C16.5265 44.1439 16.614 43.4001 16.9203 42.9079C17.4234 42.0986 18.6375 41.7923 19.5125 42.2626C19.9281 42.4814 20.0921 42.6345 20.2562 42.8423C20.1796 43.1376 20.1359 43.4439 20.1359 43.7501V50.7501C20.1359 51.3517 20.289 51.9423 20.5843 52.4673C19.7421 52.6423 18.9218 52.1501 18.6812 51.3408ZM21.875 50.7501V43.7501C21.875 42.7876 22.6625 42.0001 23.625 42.0001C24.5875 42.0001 25.375 42.7876 25.375 43.7501V50.7501C25.375 51.7126 24.5875 52.5001 23.625 52.5001C22.6625 52.5001 21.875 51.7126 21.875 50.7501ZM30.5484 44.7673L28.5796 51.3408C28.339 52.1501 27.5078 52.6423 26.6765 52.4673C26.9718 51.9423 27.125 51.3517 27.125 50.7501V43.7501C27.125 43.4767 27.0921 43.2142 27.0265 42.9517C27.2562 42.6017 27.7812 42.0001 28.7 42.0001C29.7609 42.0001 30.614 42.8642 30.614 43.9142C30.6359 44.1986 30.614 44.4939 30.5484 44.7673Z" fill="black"/>
</svg>
