<svg width="52" height="52" viewBox="0 0 52 52" fill="none" xmlns="http://www.w3.org/2000/svg">
<g clip-path="url(#clip0_2_716)">
<path d="M51.1689 20.0524L50.068 9.04164C50.0329 8.69175 49.878 8.36462 49.6293 8.116L43.8841 2.37081C43.6355 2.12208 43.3085 1.9671 42.9585 1.93216L31.9476 0.831122C29.3609 0.572036 26.8228 1.47838 24.9843 3.31676L2.23102 26.0699C0.792289 27.5085 0 29.4215 0 31.4561C0 33.4907 0.792289 35.4036 2.23102 36.8422L15.1578 49.769C16.5965 51.2077 18.5094 52 20.544 52C22.5786 52 24.4915 51.2077 25.9301 49.769L48.6834 27.0159C50.5218 25.1774 51.4277 22.6393 51.1689 20.0524ZM41.3705 16.3748C39.784 17.9613 37.2117 17.9613 35.6252 16.3748C34.0387 14.7882 34.0387 12.216 35.6252 10.6295C37.2117 9.04296 39.784 9.04296 41.3705 10.6295C42.957 12.216 42.957 14.7882 41.3705 16.3748Z" fill="url(#paint0_linear_2_716)"/>
<path d="M31.547 22.4375L32.3085 21.676C32.9034 21.0811 32.9034 20.1165 32.3085 19.5216C31.7135 18.9266 30.749 18.9266 30.1541 19.5216L29.2675 20.4081C29.1285 20.3239 28.9861 20.2409 28.8367 20.1607C27.0097 19.1796 24.7607 19.3308 22.9673 20.5554C21.3272 21.6753 20.439 23.4533 20.6495 25.1956C20.7554 26.0713 21.007 27.0284 21.4574 28.2183L15.9863 33.6893C15.3849 32.9556 15.1158 32.3104 14.8559 31.0671C14.6837 30.2435 13.8764 29.7158 13.053 29.8877C12.2294 30.0598 11.7013 30.867 11.8735 31.6906C12.2863 33.665 12.8619 34.7444 13.8248 35.8508L12.9183 36.7573C12.3233 37.3523 12.3233 38.3168 12.9183 38.9118C13.5132 39.5067 14.4778 39.5067 15.0727 38.9118L16.075 37.9095C17.0582 38.5325 18.1667 38.8826 19.3444 38.9324C19.4395 38.9365 19.5346 38.9384 19.6295 38.9384C21.0503 38.9384 22.4563 38.4907 23.6176 37.6638C24.7668 36.8453 25.606 35.689 25.9804 34.4076C26.3986 32.9769 26.2453 31.437 25.5371 29.9547C25.3769 29.6192 25.2152 29.2748 25.0571 28.9272L29.3473 24.637C29.7553 25.3511 29.7584 25.9195 29.7579 25.9597C29.705 26.7956 30.3374 27.5181 31.1739 27.5756C32.0133 27.6331 32.7405 26.9994 32.7981 26.16C32.8585 25.2844 32.5899 23.8364 31.547 22.4375ZM22.7879 31.2681C23.8615 33.5155 22.3416 34.832 21.8502 35.182C20.9392 35.8309 19.5963 36.139 18.3339 35.6506L22.7649 31.2197C22.7727 31.2359 22.7801 31.2517 22.7879 31.2681ZM23.6745 24.83C23.602 24.2306 23.999 23.5404 24.6855 23.0716C25.2629 22.6773 26.1369 22.4016 26.9984 22.6773L23.8712 25.8045C23.78 25.4619 23.7112 25.1341 23.6745 24.83ZM38.8568 13.1432C38.2619 12.5482 38.2619 11.5837 38.8568 10.9887L49.3992 0.446215C49.9942 -0.148738 50.9587 -0.148738 51.5537 0.446215C52.1486 1.04117 52.1486 2.00571 51.5537 2.60066L41.0114 13.1432C40.4164 13.738 39.4518 13.738 38.8568 13.1432Z" fill="url(#paint1_linear_2_716)"/>
</g>
<defs>
<linearGradient id="paint0_linear_2_716" x1="8.69446" y1="43.3056" x2="46.7566" y2="5.2434" gradientUnits="userSpaceOnUse">
<stop stop-color="#00B59C"/>
<stop offset="1" stop-color="#9CFFAC"/>
</linearGradient>
<linearGradient id="paint1_linear_2_716" x1="13.0028" y1="38.9962" x2="51.5533" y2="0.445713" gradientUnits="userSpaceOnUse">
<stop stop-color="#C3FFE8"/>
<stop offset="0.9973" stop-color="#F0FFF4"/>
</linearGradient>
<clipPath id="clip0_2_716">
<rect width="52" height="52" fill="white"/>
</clipPath>
</defs>
</svg>
