<svg width="39" height="40" viewBox="0 0 39 40" fill="none" xmlns="http://www.w3.org/2000/svg">
<path d="M13.2844 21.1273C12.637 21.3787 11.9057 21.1045 11.5858 20.4875L5.64439 9.04647C4.95123 7.69061 5.47681 6.03768 6.83267 5.34452C6.91646 5.30643 6.99263 5.26834 7.07642 5.23026C8.60748 4.61327 10.2909 5.51209 10.7174 7.066L10.7251 7.08885L14.0995 19.5125C14.2747 20.1752 13.9243 20.876 13.2844 21.1273Z" fill="#F98500"/>
<path d="M12.9645 15.3611L11.2811 16.0238C10.9688 16.1381 10.6184 15.9857 10.4889 15.6734C10.367 15.3611 10.5193 15.0031 10.8316 14.8813L12.6369 14.1729L12.9645 15.3611Z" fill="#FA6D00"/>
<path d="M13.6196 17.7453L12.1723 18.2861C11.86 18.3927 11.5172 18.248 11.3801 17.9357C11.2583 17.6234 11.4106 17.2654 11.7305 17.1435L13.2997 16.557L13.6196 17.7453Z" fill="#FA6D00"/>
<path d="M20.4522 9.93777C19.9419 9.58738 19.6829 8.97039 19.7971 8.3534C20.079 6.9366 19.1649 5.55789 17.7405 5.26844C17.7253 5.26844 17.7024 5.26082 17.6872 5.26082C17.1006 5.1618 16.6131 4.74285 16.4303 4.17156C16.3846 4.03445 16.3313 3.89734 16.2704 3.76785C15.6229 2.47293 14.0538 1.94734 12.7588 2.59481C11.5325 3.20418 10.984 4.65906 11.502 5.92352C11.7686 6.57859 11.8981 7.17273 11.4487 7.80496C10.6108 8.98563 10.8926 10.6233 12.0733 11.4536C12.0809 11.4612 12.0962 11.4688 12.1038 11.4764C12.6141 11.8345 12.8579 12.4591 12.736 13.0684C12.4618 14.4852 13.3911 15.8639 14.8155 16.1382C16.0952 16.3819 17.352 15.6583 17.7862 14.4319C19.0811 15.0794 20.6503 14.5462 21.2977 13.2589C21.8766 12.0934 21.5186 10.6843 20.4522 9.93777Z" fill="#598C44"/>
<path d="M26.3936 12.0325C26.0508 11.5145 26.0432 10.8442 26.3784 10.3186C27.1782 9.11509 26.843 7.48501 25.6395 6.68521C25.6243 6.67759 25.6091 6.66236 25.5938 6.65474C24.8473 6.18247 24.9007 5.51216 24.8397 4.74283C24.7331 3.30318 23.4686 2.22154 22.029 2.32818C20.6655 2.43482 19.6067 3.56978 19.6067 4.94087C19.6067 5.64927 19.5001 6.24341 18.8526 6.66236C17.6339 7.43931 17.2758 9.06177 18.0604 10.2805C18.068 10.2881 18.0757 10.3034 18.0833 10.311C18.4184 10.8366 18.4184 11.5069 18.068 12.0249C17.2835 13.236 17.6262 14.8584 18.8374 15.6506C19.9266 16.359 21.3739 16.161 22.227 15.186C23.1868 16.2676 24.8397 16.3743 25.9214 15.4221C26.8964 14.569 27.0944 13.1217 26.3936 12.0325Z" fill="#5F9548"/>
<path d="M30.4687 19.3907L23.1562 16.9532L27.1857 4.87235C27.6732 3.41747 29.1586 2.29012 30.7049 2.32821C31.6646 2.35106 32.5635 2.53387 33.3176 3.14325C34.5363 4.11825 35.0162 5.74833 34.5211 7.22606L30.4687 19.3907Z" fill="#FFB531"/>
<path d="M25.5938 13.2969V35.2344H7.3125V13.2969L9.14062 14.5156L10.9688 13.2969L12.7969 14.5156L14.625 13.2969L16.4531 14.5156L18.2812 13.2969L20.1094 14.5156L21.9375 13.2969L23.7656 14.5156L25.5938 13.2969Z" fill="#FFB531"/>
<path d="M25.5938 18.347V35.2343H7.3125V31.54C14.0232 29.2853 20.673 25.1797 25.5938 18.347Z" fill="#FCAC1F"/>
<path d="M32.9062 13.2969V35.2344H25.5938V13.2969L27.4219 14.5156L29.25 13.2969L31.0781 14.5156L32.9062 13.2969Z" fill="#F98500"/>
<path d="M7.42676 37.6719C10.1191 37.6719 12.3018 35.4893 12.3018 32.7969C12.3018 30.1045 10.1191 27.9219 7.42676 27.9219C4.73437 27.9219 2.55176 30.1045 2.55176 32.7969C2.55176 35.4893 4.73437 37.6719 7.42676 37.6719Z" fill="#F35244"/>
<path d="M17.6719 24.875L18.2812 26.0938C17.5271 26.8479 17.2225 27.9447 17.4814 28.9883L17.6719 29.75H15.2344V28.8207C15.2344 27.1525 16.1789 25.6215 17.6719 24.875Z" fill="#5F9548"/>
<path d="M14.0995 37.6719C13.3301 37.6719 12.6446 37.1691 12.4237 36.4303L11.0526 31.8523C10.6717 30.5803 11.5096 29.1406 12.9188 29.1406C13.6044 29.1406 14.2366 29.4986 14.587 30.0852L15.8438 32.1875V35.9275C15.8438 36.8873 15.0592 37.6719 14.0995 37.6719Z" fill="#FA9F0C"/>
<path d="M18.8068 37.6719C19.5762 37.6719 20.2617 37.1691 20.4826 36.4303L21.8537 31.8523C22.2422 30.565 21.3891 29.1406 19.9875 29.1406C19.302 29.1406 18.6697 29.4986 18.3193 30.0852L17.0625 32.1875V35.9275C17.0625 36.8873 17.8471 37.6719 18.8068 37.6719Z" fill="#FA9F0C"/>
<path d="M16.4531 29.1406C17.4662 29.1406 18.2812 29.9557 18.2812 30.9688V35.8438C18.2812 36.8568 17.4662 37.6719 16.4531 37.6719C15.44 37.6719 14.625 36.8568 14.625 35.8438V30.9688C14.625 29.9557 15.44 29.1406 16.4531 29.1406Z" fill="#FFB531"/>
<path d="M33.6985 2.67092C32.5711 1.76448 31.0248 1.49026 29.5547 1.91682C28.1227 2.33577 27.0487 3.34885 26.6069 4.68186L24.1465 12.0705L23.8571 11.644L22.8364 12.3219V9.86155L24.5274 8.7342L23.8494 7.72112L22.8287 8.39905V5.60354H21.61V8.39143L20.5969 7.7135L19.919 8.72659L21.61 9.85393V12.3143L20.5969 11.6364L19.919 12.6494L20.8559 13.274L20.1018 13.7768L18.6088 12.7865C18.5403 12.7408 18.4717 12.7104 18.3955 12.6951C18.4412 12.5809 18.5022 12.4666 18.5707 12.36C19.043 11.6364 19.043 10.7071 18.5783 9.97581C18.1518 9.32834 18.167 8.36096 18.6088 7.7135C18.7992 7.43928 19.5762 6.88323 19.7819 6.60901C20.1856 6.07581 20.2313 5.46643 20.277 4.93323C20.3075 4.51428 20.3379 4.14866 20.5207 3.86682C21.1073 2.92991 22.3489 2.64807 23.2858 3.23459C23.4838 3.35647 23.6514 3.51643 23.7961 3.69163C24.1237 4.10295 24.1541 4.51428 24.1922 5.07034C24.2074 5.26077 24.2227 5.46643 24.2455 5.67971L25.4567 5.52737C25.4338 5.34456 25.4186 5.16174 25.411 4.98655C25.3653 4.32385 25.3119 3.64592 24.7559 2.93752C23.6514 1.53596 21.6252 1.29983 20.2237 2.3967C19.9342 2.62522 19.6828 2.89944 19.4848 3.21174C19.1496 3.74495 19.1039 4.32385 19.0582 4.82659C19.0506 4.94084 19.043 5.04748 19.0278 5.15413C18.6545 4.90276 18.228 4.72756 17.7785 4.64377C17.4129 4.58284 17.1082 4.32385 16.994 3.97346C16.7274 3.14319 16.1485 2.45764 15.3715 2.06155C14.6098 1.65784 13.7186 1.58167 12.8959 1.84827C11.6848 2.25198 10.8012 3.38694 10.6946 4.68948C10.6565 5.18459 10.7783 5.61877 10.9002 6.00725C10.3289 5.07034 9.33108 4.4762 8.2342 4.40764L8.25706 1.70354L7.03831 1.69592L7.02307 3.45549L6.29182 1.58167L5.17971 2.04631L5.91096 3.92014L4.70745 2.64045L3.82385 3.47073L5.67483 5.4512C4.66936 6.48713 4.43323 8.04104 5.10354 9.32073L6.36799 11.7582L7.44963 11.1946L6.18518 8.75706C5.64436 7.7135 6.04807 6.4262 7.09163 5.88538C8.13518 5.34455 9.42249 5.74827 9.96331 6.79182C10.0319 6.92893 10.0852 7.06604 10.1309 7.21838L10.1537 7.29456L8.1885 8.06389L8.6303 9.19885L10.4737 8.48284V8.49045C10.3594 8.92463 10.3289 9.37405 10.4051 9.82346L9.07971 10.3414L9.52151 11.4764L10.8317 10.966C11.1364 11.4764 11.6619 11.9487 11.6619 11.9487L9.96331 12.6114L10.1614 13.1065L9.14827 13.7844L7.6553 12.7942C7.37346 12.6037 7.00022 12.6799 6.80979 12.9617C6.74124 13.0608 6.71077 13.1826 6.71077 13.2969V26.0938H7.92952V14.4319L8.81311 15.0184C9.01878 15.1555 9.28538 15.1555 9.49104 15.0184L10.984 14.0281L12.477 15.0184C12.6826 15.1555 12.9492 15.1555 13.1549 15.0184L14.6479 14.0281L16.1408 15.0184C16.3465 15.1555 16.6131 15.1555 16.8188 15.0184L18.3117 14.0281L19.8047 15.0184C20.0104 15.1555 20.277 15.1555 20.4826 15.0184L21.9756 14.0281L23.4686 15.0184C23.6742 15.1555 23.9408 15.1555 24.1465 15.0184L25.0301 14.4319V34.625H22.5926V35.8438H32.952C33.2871 35.8438 33.5614 35.5695 33.5614 35.2344V13.2969C33.5614 13.1141 33.4776 12.9465 33.3405 12.8322L35.1457 7.42405C35.6713 5.70256 35.1076 3.80588 33.6985 2.67092ZM17.5729 10.6614C17.6262 10.7451 17.6643 10.8365 17.6871 10.9356L17.2682 11.5526L16.3389 9.26741L17.1539 8.06389C16.9407 8.93987 17.0778 9.91487 17.5729 10.6614ZM13.3225 13.4416C13.4824 12.7942 13.353 12.1162 12.9797 11.5678C12.6217 11.0498 12.0504 10.6918 11.761 10.1281C11.6086 9.83108 11.5477 9.48831 11.5858 9.15315C11.6772 8.40666 12.2408 7.78206 12.3246 7.03557C12.3856 6.48713 12.1647 5.95393 12.0504 5.41311C11.7838 4.21721 12.5379 3.00608 13.8252 2.94514C14.4498 2.92229 15.044 3.18889 15.4401 3.66877C15.7905 4.10295 15.9504 4.67424 16.3008 5.11604C16.5598 5.44358 16.9102 5.67971 17.3063 5.79397C17.6948 5.90823 18.1518 5.92346 18.4108 6.23577C17.9614 6.55569 17.5957 6.97463 17.3444 7.46975L16.476 6.89084L15.7905 7.88108L14.7393 5.31409L13.6196 5.77112L14.6631 8.34573L13.4748 8.11721L13.2311 9.30549L15.1887 9.74729L16.1408 11.9867L14.9526 11.7582L14.8078 12.4742C14.8002 12.4819 13.6348 13.2131 13.3225 13.4416ZM15.4401 13.1065L16.6969 13.3655L16.7807 13.5711L16.4532 13.7844L15.4401 13.1065ZM23.301 13.4721L23.7733 13.1522L23.5981 13.6701L23.301 13.4721ZM26.2032 14.4319L27.0867 15.0184C27.2924 15.1555 27.559 15.1555 27.7647 15.0184L28.6483 14.4319V31.3192L26.2108 33.7567V14.4319H26.2032ZM32.2969 14.4319V33.7567L29.8594 31.3192V14.4319L30.743 15.0184C30.9487 15.1555 31.2153 15.1555 31.4209 15.0184L32.2969 14.4319ZM29.25 32.4389L31.4362 34.625H27.0639L29.25 32.4389ZM33.9422 7.03557L31.8703 13.2512L31.0782 13.7768L29.5852 12.7865C29.3795 12.6494 29.1129 12.6494 28.9073 12.7865L27.4143 13.7768C27.4143 13.7768 25.8908 12.7637 25.8756 12.7561C25.6776 12.6494 25.4338 12.6647 25.251 12.7865L25.1596 12.8475L27.7571 5.06272C28.077 4.11057 28.8539 3.39456 29.8975 3.08225C30.9791 2.76233 32.1141 2.96038 32.9367 3.61545C33.9498 4.43811 34.3535 5.80159 33.9422 7.03557Z" fill="black"/>
<path d="M28.5292 6.61169L32.1868 6.00333L32.3867 7.20501L28.729 7.81338L28.5292 6.61169Z" fill="black"/>
<path d="M27.3093 10.266L30.967 9.65762L31.1668 10.8593L27.5092 11.4677L27.3093 10.266Z" fill="black"/>
<path d="M19.9952 28.5313C19.3249 28.5237 18.6774 28.7903 18.2051 29.2702C18.1975 29.2626 18.1899 29.255 18.1823 29.2397L18.0833 28.836C18.0833 28.8284 18.0833 28.8284 18.0756 28.8208C17.8395 27.9905 18.3118 26.9393 18.7231 26.528C18.9059 26.3452 18.9516 26.0557 18.8374 25.8272L18.228 24.6085C18.0756 24.3038 17.71 24.1819 17.4129 24.3343C15.7067 25.1798 14.6327 26.9241 14.6403 28.8208V29.1483C14.4956 29.0417 14.3356 28.9427 14.1756 28.8513C12.995 28.219 11.4639 28.6151 10.7631 29.7272C10.3594 30.3747 10.2528 31.2507 10.4813 32.02L11.2735 34.6632C10.2223 36.7731 7.66294 37.6339 5.55298 36.5903C3.46587 35.5544 2.59751 33.0331 3.60298 30.9307C3.61821 30.9003 3.63345 30.8698 3.64868 30.8393L3.67153 32.9112L4.89028 32.896L4.8522 30.3595L7.28208 30.4737L7.34302 29.255L5.22544 29.1559C5.85767 28.7675 6.58892 28.5542 7.32778 28.5313C8.21138 28.5085 9.07974 28.7598 9.81099 29.255L10.4889 28.2419C9.11782 27.3202 7.40395 27.0688 5.8272 27.5487L6.08618 26.9393L4.96645 26.4595L4.12856 28.4095C4.06763 28.4552 3.99907 28.5085 3.93813 28.5618L2.07954 26.7032L1.2188 27.5639L3.09263 29.4378C3.05454 29.4911 3.01645 29.5444 2.97837 29.5977L0.982666 30.4509L1.46255 31.5706L2.16333 31.2659C1.31782 34.1757 2.9936 37.2149 5.90337 38.0604C7.8229 38.6165 9.89478 38.0833 11.3116 36.6665C11.4563 36.5218 11.5934 36.3618 11.7229 36.2018L11.8448 36.5979C12.218 37.8471 13.5282 38.5479 14.7774 38.1747C14.9526 38.1214 15.1125 38.0528 15.2725 37.9614C16.0114 38.3727 16.9102 38.3727 17.6491 37.9614C18.7764 38.6089 20.2161 38.2128 20.8635 37.0854C20.9549 36.9331 21.0235 36.7655 21.0768 36.5903L22.4479 32.0124C22.5317 31.7077 22.5698 31.3878 22.5545 31.0679C22.5469 29.6739 21.4043 28.5313 19.9952 28.5313ZM17.4206 25.7358L17.5577 26.01C17.0778 26.6727 16.735 27.6401 16.7959 28.5542C16.6208 28.5237 16.1409 28.5009 15.8514 28.6075C15.9124 27.4573 16.4913 26.4061 17.4206 25.7358ZM13.0102 36.2552L11.6391 31.6772C11.5096 31.243 11.5706 30.7251 11.7838 30.3823C12.1342 29.8186 12.9797 29.6054 13.5891 29.9329C13.8786 30.0852 13.9928 30.1919 14.1071 30.3366C14.0538 30.5423 14.0233 30.7555 14.0233 30.9688V35.8438C14.0233 36.2628 14.1299 36.6741 14.3356 37.0397C13.7491 37.1616 13.1778 36.8188 13.0102 36.2552ZM15.2344 35.8438V30.9688C15.2344 30.2985 15.7829 29.7501 16.4532 29.7501C17.1235 29.7501 17.6719 30.2985 17.6719 30.9688V35.8438C17.6719 36.5141 17.1235 37.0626 16.4532 37.0626C15.7829 37.0626 15.2344 36.5141 15.2344 35.8438ZM21.2749 31.6772L19.9038 36.2552C19.7362 36.8188 19.1573 37.1616 18.5784 37.0397C18.784 36.6741 18.8907 36.2628 18.8907 35.8438V30.9688C18.8907 30.7784 18.8678 30.5956 18.8221 30.4128C18.9821 30.169 19.3477 29.7501 19.9875 29.7501C20.7264 29.7501 21.3206 30.3518 21.3206 31.0831C21.3358 31.2811 21.3206 31.4868 21.2749 31.6772Z" fill="black"/>
</svg>
